<svg width="28" height="26" viewBox="0 0 28 26" fill="none" xmlns="http://www.w3.org/2000/svg">
<path d="M7.62203 2.3022C10.0595 2.57301 12.0906 4.33343 13.9865 6.63554C15.8823 4.33343 18.0623 2.3022 20.7707 2.3022C24.2915 2.3022 25.8972 5.49676 25.4969 8.21286C25.0907 10.9689 24.0205 11.3751 19.2679 17.1981L14.6637 22.6147C13.7657 23.5713 14.2075 23.5713 13.3095 22.6147L11.6845 20.5835L10.3302 18.9584L8.84079 17.1981C3.8434 11.3751 2.68489 9.88554 2.4892 8.21286C2.08285 4.73972 4.38512 1.94257 7.62203 2.3022Z" fill="url(#paint0_linear_111_20113)"/>
<path d="M20.7708 0.258301C17.9499 0.258301 15.8154 1.91379 14 3.64372C12.2701 1.80798 10.0501 0.258301 7.22915 0.258301C3.25635 0.258301 0.458313 3.67416 0.458313 7.39901C0.458313 9.39724 1.27674 10.8369 2.17302 12.1885L12.6957 24.8043C13.8773 26.0543 14.0999 26.0543 15.2813 24.8043L25.8277 12.1885C26.8815 10.8369 27.5416 9.39724 27.5416 7.39901C27.5416 3.67421 24.7436 0.258301 20.7708 0.258301ZM24.1562 11.8382L14 23.9562L3.84373 11.7882C2.62923 10.0997 2.15102 8.96055 2.15102 7.39901C2.15102 4.48923 4.22883 1.86976 7.22915 1.8452C9.69714 1.82489 12.4943 4.34532 14 6.2454C15.4659 4.41134 18.3028 1.8452 20.7708 1.8452C23.6916 1.8452 25.8489 4.48923 25.8489 7.39901C25.8489 8.96055 25.4706 10.1843 24.1562 11.8382Z" fill="black"/>
<defs>
<linearGradient id="paint0_linear_111_20113" x1="-10.4146" y1="-12.3548" x2="29.8289" y2="-7.10721" gradientUnits="userSpaceOnUse">
<stop stop-color="#F64D4D"/>
<stop offset="1" stop-color="#4D5EF6"/>
</linearGradient>
</defs>
</svg>
